<svg xmlns="http://www.w3.org/2000/svg" xml:space="preserve" width="655.359" height="655.359" style="shape-rendering:geometricPrecision;text-rendering:geometricPrecision;image-rendering:optimizeQuality;fill-rule:evenodd;clip-rule:evenodd" viewBox="0 0 6.827 6.827"><defs><style>.fil0,.fil1{fill:#1565c0;fill-rule:nonzero}.fil1{fill:#1e88e5}</style></defs><g id="Layer_x0020_1"><g id="_249304248"><path id="_249305208" class="fil0" d="M3.413.853a.697.697 0 0 1 .7.7.697.697 0 0 1-.7.7.697.697 0 0 1-.7-.7.697.697 0 0 1 .7-.7zm.268.432a.377.377 0 0 0-.646.268.377.377 0 0 0 .646.267.377.377 0 0 0 0-.535z"/><path id="_249304896" class="fil0" d="m3.574 2.092.213 3.741H3.04l.214-3.741z"/><path id="_249304752" class="fil1" d="M1.407 3.574c.812 2.11 3.2 2.11 4.012 0 .058.022.312.081.287.146-.328.84-.736 1.445-1.18 1.813-.354.294-.732.44-1.113.44-.38 0-.758-.146-1.112-.44-.443-.368-.85-.97-1.178-1.808-.005-.012.014-.016.01-.028l.015-.024.26-.1z"/><path id="_249304536" class="fil0" d="m4.723 3.818.81-.288.1-.035.036.1.288.81z"/><path id="_249304392" class="fil0" d="m.87 4.406.287-.81.036-.102.1.036.811.288z"/><path id="_249304272" class="fil1" d="M2.797 2.7H4.03v.322H2.797z"/></g></g><path style="fill:none" d="M0 0h6.827v6.827H0z"/></svg>