<svg xmlns="http://www.w3.org/2000/svg" viewBox="0 0 512 512" style="enable-background:new 0 0 512 512" xml:space="preserve"><path style="fill:#959cb5" d="m380.635 320.249 20.801 9.82s-29.086 73.17-113.092 77.714c-4.514.244-8.248-3.509-8.248-8.03l.001-259.049c0-5.745 3.111-10.985 8.081-13.865 21.413-12.412 35.009-36.803 31.537-64.029-3.676-28.833-27.349-52.124-56.231-55.387-38.838-4.388-71.741 25.879-71.741 63.832 0 23.695 12.84 44.367 31.932 55.5 5.019 2.926 8.228 8.114 8.228 13.923V399.96c0 4.456-3.653 8.068-8.102 7.832-84.119-4.468-113.238-77.723-113.238-77.723l17.884-8.444a2.207 2.207 0 0 0 .577-3.597L55.198 247.96l6.668 108.288c.109 1.769 2.152 2.694 3.554 1.61l17.475-13.514C128.492 460.811 208.812 439.726 256 504.986c47.188-65.26 127.508-44.175 173.104-160.641l20.772 16.064 6.924-112.448-76.165 72.288zM256 103.384c-17.744 0-32.128-14.384-32.128-32.128S238.257 39.129 256 39.129s32.128 14.384 32.128 32.128-14.385 32.127-32.128 32.127z"/><path style="fill:#7f8499" d="M191.743 71.256c0 23.727 12.875 44.424 32.01 55.544 4.974 2.891 8.15 8.035 8.15 13.788v259.344c0 4.463-3.659 8.095-8.116 7.858-84.108-4.474-113.225-77.721-113.225-77.721l17.885-8.444a2.207 2.207 0 0 0 .577-3.597L55.198 247.96l6.667 108.286c.109 1.768 2.152 2.695 3.554 1.611l17.474-13.514C128.49 460.81 208.81 439.725 255.998 504.985V103.384c-20.245 0-36.114-18.723-31.241-39.797 2.48-10.722 10.641-19.686 21.16-22.922a34.157 34.157 0 0 1 10.081-1.527V7.015c-35.485.002-64.255 28.755-64.255 64.241z"/><circle style="fill:#959cb5" cx="135.518" cy="167.641" r="16.062"/><circle style="fill:#959cb5" cx="376.484" cy="167.641" r="16.062"/><path d="M459.573 241.167a7.513 7.513 0 0 0-8.35 1.36l-76.012 72.143a7.513 7.513 0 0 0 1.965 12.246l13.916 6.57c-9.104 17.09-39.397 63.037-103.217 66.491-.048-.002-.088-.038-.123-.071a.607.607 0 0 1-.188-.439V175.334h66.365c3.144 9.308 11.954 16.032 22.31 16.032 12.984 0 23.547-10.563 23.547-23.547s-10.563-23.547-23.547-23.547c-10.356 0-19.166 6.723-22.31 16.032h-66.365v-19.366c0-3.025 1.613-5.766 4.317-7.333 25.038-14.511 38.84-42.519 35.164-71.354-4.101-32.162-30.482-58.149-62.728-61.793-20.413-2.305-40.835 4.156-56.028 17.729-15.206 13.586-23.927 33.064-23.927 53.442 0 25.365 13.64 49.076 35.597 61.88 2.807 1.636 4.482 4.421 4.482 7.449v19.346h-66.365c-3.144-9.308-11.954-16.032-22.31-16.032-12.984 0-23.547 10.563-23.547 23.547s10.563 23.547 23.547 23.547c10.356 0 19.166-6.723 22.31-16.032h66.365v224.131a.607.607 0 0 1-.188.439c-.035.033-.093.07-.123.071-32.57-1.762-60.296-14.45-82.409-37.71-10.556-11.104-17.275-22.124-20.811-28.78l13.919-6.571a7.514 7.514 0 0 0 1.965-12.246l-76.012-72.143a7.516 7.516 0 0 0-12.675 5.912l6.91 112.222a7.516 7.516 0 0 0 12.098 5.484l12.942-10.008c28.28 65.136 68.731 85.739 104.606 104.013 24.431 12.445 47.507 24.199 65.252 48.739a7.515 7.515 0 0 0 12.18 0c17.745-24.541 40.821-36.295 65.252-48.739 35.875-18.274 76.326-38.877 104.606-104.013l12.942 10.008a7.518 7.518 0 0 0 7.699.9 7.518 7.518 0 0 0 4.399-6.384l6.91-112.222a7.528 7.528 0 0 0-4.33-7.27zm-83.335-81.864c4.696 0 8.517 3.821 8.517 8.517s-3.821 8.517-8.517 8.517-8.517-3.821-8.517-8.517 3.821-8.517 8.517-8.517zm-240.476 17.033c-4.696 0-8.517-3.821-8.517-8.517s3.821-8.517 8.517-8.517 8.517 3.821 8.517 8.517-3.82 8.517-8.517 8.517zm91.765-55.81c-17.356-10.121-28.139-28.857-28.139-48.897a56.698 56.698 0 0 1 18.911-42.233c12.182-10.884 27.926-15.856 44.327-14.004 25.45 2.876 46.272 23.382 49.507 48.759 2.91 22.82-7.999 44.979-27.79 56.45-7.285 4.222-11.81 12.015-11.81 20.336v19.366h-33.065v-19.346c-.001-8.307-4.577-16.137-11.941-20.431zm215.331 225.047-9.505-7.351a7.513 7.513 0 0 0-11.595 3.205c-26.29 67.151-64.391 86.559-101.238 105.327-22.467 11.445-45.623 23.239-64.521 45.548-18.896-22.309-42.052-34.103-64.521-45.548-36.847-18.768-74.948-38.177-101.238-105.327a7.514 7.514 0 0 0-11.595-3.206l-9.505 7.351-4.865-79.003 54.201 51.442-10.83 5.113a7.515 7.515 0 0 0-3.775 9.572c.318.8 8 19.815 26.507 39.455 17.123 18.172 47.145 40.353 92.934 42.831 4.191.228 8.195-1.253 11.272-4.167a15.703 15.703 0 0 0 4.882-11.35v-224.13h33.065v224.131a15.7 15.7 0 0 0 4.882 11.35c3.076 2.914 7.076 4.395 11.272 4.167 45.789-2.478 75.811-24.659 92.934-42.831 18.508-19.641 26.189-38.655 26.507-39.455a7.516 7.516 0 0 0-3.775-9.572l-10.83-5.113 54.201-51.442-4.864 79.003z"/><path d="M295.578 71.629c0-3.346-.419-6.671-1.246-9.886a7.514 7.514 0 1 0-14.556 3.744c.513 1.992.773 4.058.773 6.141 0 13.536-11.013 24.549-24.549 24.549s-24.549-11.013-24.549-24.549S242.464 47.08 256 47.08c2.079 0 4.141.26 6.131.771a7.515 7.515 0 0 0 3.739-14.557 39.672 39.672 0 0 0-9.87-1.242c-21.823 0-39.578 17.755-39.578 39.578s17.755 39.578 39.578 39.578 39.578-17.756 39.578-39.579z"/></svg>