<svg version="1.0" xmlns="http://www.w3.org/2000/svg" width="100" height="100" xml:space="preserve"><path fill="#00B8D4" d="m10 73.991 2.552 6.157c6.953-2.877 14.609-2.877 21.563.008 5.124 2.115 10.502 3.177 15.883 3.177s10.762-1.062 15.882-3.185c6.953-2.877 14.608-2.883 21.569 0L90 73.991c-3.753-1.554-7.62-2.363-11.462-2.571a84.29 84.29 0 0 0 4.795-28.086h-20L56.667 50H43.333V36.667H50V30H36.667V16.667H30V30h-6.667v20h-6.666v21.992A34.784 34.784 0 0 0 10 73.991z"/><path fill="#E0F7FA" d="M30 36.667h6.667V50H30zM23.333 71.342c4.447 0 8.972.842 13.334 2.649 8.232 3.411 17.776 3.685 26.663 0 2.542-1.052 5.218-1.767 7.949-2.197A77.842 77.842 0 0 0 76.365 50H66.094l-6.666 6.667H23.333v14.675z"/><circle fill="#00B8D4" cx="66.667" cy="60" r="3.333"/></svg>