<svg xmlns="http://www.w3.org/2000/svg" viewBox="0 0 24 24"><g data-name="medium audio"><path d="M11.46 3c-1 0-1 .13-6.76 4H1a1 1 0 0 0-1 1v8a1 1 0 0 0 1 1h3.7l5.36 3.57A2.54 2.54 0 0 0 14 18.46V5.54A2.54 2.54 0 0 0 11.46 3zM2 9h2v6H2zm10 9.46a.55.55 0 0 1-.83.45L6 15.46V8.54l5.17-3.45a.55.55 0 0 1 .83.45zM16.83 9.17a1 1 0 0 0-1.42 1.42 2 2 0 0 1 0 2.82 1 1 0 0 0 .71 1.71c1.38 0 3.04-3.62.71-5.95z"/><path d="M19 7.05a1 1 0 0 0-1.41 1.41 5 5 0 0 1 0 7.08 1 1 0 0 0 .7 1.7c1.61 0 4.8-6.05.71-10.19z"/></g></svg>